<?xml version="1.0" standalone="no"?>
<!DOCTYPE svg PUBLIC "-//W3C//DTD SVG 20010904//EN"
 "http://www.w3.org/TR/2001/REC-SVG-20010904/DTD/svg10.dtd">
<svg version="1.0" xmlns="http://www.w3.org/2000/svg"
 width="100.000000pt" height="100.000000pt" viewBox="0 0 100.000000 100.000000"
 preserveAspectRatio="xMidYMid meet">

<g transform="translate(0.000000,100.000000) scale(0.100000,-0.100000)"
fill="#000000" stroke="none">
<path d="M512 988 c-5 -7 -13 -23 -16 -35 -4 -13 -13 -23 -21 -23 -25 0 -45
-31 -45 -69 0 -45 -6 -53 -30 -39 -26 16 -79 -20 -150 -103 -87 -101 -90 -109
-90 -252 0 -141 2 -137 -110 -211 -30 -20 -51 -36 -46 -36 16 0 147 94 157
112 5 9 9 72 9 139 0 119 1 124 30 169 42 65 165 182 187 178 37 -7 25 -42
-37 -108 -55 -57 -118 -160 -150 -246 -20 -52 2 -20 34 49 18 39 45 92 60 115
26 42 28 43 47 26 24 -21 24 -62 2 -94 -13 -19 -18 -45 -18 -102 0 -74 -1 -78
-34 -112 -19 -20 -30 -36 -24 -36 18 0 61 57 68 91 4 17 4 50 0 74 -5 37 -1
52 25 98 29 53 102 122 114 110 15 -16 2 -46 -44 -101 -63 -75 -66 -92 -4 -23
25 28 50 48 56 45 13 -8 5 -26 -42 -88 -38 -51 -41 -59 -47 -139 l-6 -85 -25
11 c-20 9 -26 8 -38 -7 -11 -15 -10 -24 3 -57 l15 -39 -58 -80 c-82 -112 -90
-125 -79 -118 6 4 42 49 80 102 67 93 84 103 85 51 0 -11 -13 -48 -30 -82 -37
-80 -30 -82 10 -3 37 72 37 95 5 142 -42 62 -27 112 21 67 l24 -22 0 72 c0 75
11 111 34 111 19 0 26 -22 26 -83 l1 -52 28 61 c31 67 47 82 64 65 9 -9 6 -27
-10 -74 -12 -34 -20 -63 -19 -65 2 -1 15 15 29 37 25 37 61 60 74 47 4 -3 -8
-28 -25 -56 -17 -27 -30 -50 -28 -50 2 0 17 5 35 11 17 6 39 8 47 5 15 -6 15
-9 -2 -27 -10 -12 -31 -27 -46 -35 -16 -8 -28 -23 -28 -33 0 -10 -8 -29 -19
-42 -20 -26 -46 -75 -61 -114 -15 -40 -2 -29 15 12 9 21 29 59 46 84 l30 47
91 -91 90 -92 -91 99 c-50 55 -91 102 -91 106 0 3 16 14 36 25 64 34 69 80 9
73 l-33 -4 21 39 c21 36 21 39 5 51 -43 32 -30 124 27 199 30 39 35 53 34 94
-3 66 7 91 43 109 30 15 32 15 45 -2 11 -15 13 -51 10 -169 -5 -155 -2 -150 9
15 10 137 22 79 23 -111 l1 -157 38 -34 c40 -36 126 -98 137 -98 3 0 -31 28
-77 62 l-83 63 -5 176 c-3 109 -9 181 -16 190 -7 8 -15 28 -19 46 -4 19 -14
35 -26 38 -10 4 -36 27 -56 52 -49 60 -149 143 -172 143 -10 0 -23 -6 -29 -12z
m140 -86 l90 -88 -31 -31 c-17 -17 -31 -39 -31 -47 0 -29 -15 -17 -48 38 -18
29 -53 74 -77 100 -45 47 -56 81 -33 104 22 22 39 12 130 -76z m-105 -33 c26
-28 59 -72 74 -98 15 -26 34 -53 43 -60 27 -23 20 -76 -18 -125 -43 -57 -60
-107 -52 -156 5 -30 2 -41 -16 -56 -21 -19 -21 -19 -14 9 10 41 -2 70 -25 64
-16 -4 -19 0 -19 34 0 22 -7 51 -16 64 -9 13 -13 29 -9 34 3 6 2 19 -3 28 -5
10 -6 27 -2 38 7 18 9 17 26 -13 31 -55 46 -70 27 -27 -10 22 -30 50 -45 63
-21 17 -28 33 -28 58 0 27 -5 37 -25 46 -25 11 -31 43 -8 43 16 0 110 -91 140
-137 14 -21 28 -36 31 -33 8 8 -47 76 -110 135 -46 44 -58 62 -58 86 0 34 15
54 42 54 9 0 39 -23 65 -51z m-99 -111 c22 -22 12 -52 -30 -95 l-42 -42 -18
30 -19 31 38 43 c41 46 52 52 71 33z m53 -230 c14 -26 6 -107 -15 -145 l-15
-28 -1 31 c0 39 -22 69 -44 61 -9 -4 -16 -3 -16 1 0 11 64 102 72 102 4 0 12
-10 19 -22z"/>
</g>
</svg>
