<?xml version="1.0" standalone="no"?>
<!DOCTYPE svg PUBLIC "-//W3C//DTD SVG 20010904//EN"
 "http://www.w3.org/TR/2001/REC-SVG-20010904/DTD/svg10.dtd">
<svg version="1.0" xmlns="http://www.w3.org/2000/svg"
 width="486.000000pt" height="513.000000pt" viewBox="0 0 486.000000 513.000000"
 preserveAspectRatio="xMidYMid meet">

<g transform="translate(0.000000,513.000000) scale(0.100000,-0.100000)"
fill="#000000" stroke="none">
<path d="M3258 4023 c6 -2 18 -2 25 0 6 3 1 5 -13 5 -14 0 -19 -2 -12 -5z"/>
<path d="M3350 4001 c243 -77 388 -250 435 -516 11 -60 13 -64 14 -28 1 55
-23 175 -49 242 -11 29 -18 56 -15 59 11 11 54 -19 95 -66 51 -59 130 -205
130 -241 l1 -26 19 23 c15 18 17 28 9 56 -10 37 -73 161 -90 176 -3 3 -15 21
-27 41 -41 67 -160 167 -260 218 -72 37 -221 81 -270 80 l-47 0 55 -18z"/>
<path d="M1335 3994 c-33 -8 -102 -35 -154 -60 -107 -52 -205 -141 -259 -235
-36 -64 -38 -69 -18 -69 8 0 34 25 58 57 46 60 93 101 104 90 4 -4 -3 -39 -15
-79 -33 -106 -33 -108 -24 -108 4 0 19 30 32 68 13 37 35 87 49 112 53 92 171
180 302 221 50 16 52 18 20 18 -19 -1 -62 -7 -95 -15z"/>
<path d="M2524 3612 l-26 -14 104 -103 104 -104 82 42 c82 42 112 69 47 41
-51 -21 -59 -19 -118 39 -30 28 -68 63 -85 76 -17 13 -29 27 -26 32 7 13 -53
6 -82 -9z"/>
<path d="M3982 3428 c-7 -7 -12 -44 -12 -96 0 -75 2 -83 15 -72 13 11 15 26 9
82 -5 48 -3 72 6 83 15 18 -1 20 -18 3z"/>
<path d="M2144 3332 c5 -8 0 -22 -10 -33 -10 -11 -14 -20 -9 -19 22 5 27 -1
15 -15 -11 -13 -15 -13 -22 -3 -7 9 -8 7 -5 -8 3 -13 -2 -26 -13 -34 -10 -7
-16 -19 -13 -27 3 -9 -2 -16 -15 -20 -12 -3 -18 -11 -16 -18 4 -8 -3 -15 -18
-17 -15 -2 -24 -11 -26 -26 -2 -12 -8 -20 -13 -17 -5 4 -9 2 -9 -3 0 -5 -13
-25 -30 -43 -16 -19 -28 -40 -25 -47 3 -7 1 -11 -4 -8 -14 9 -34 -22 -27 -41
4 -10 4 -14 0 -10 -4 3 -17 -5 -30 -20 -13 -15 -21 -29 -18 -32 3 -3 9 1 13 8
5 7 14 11 20 7 7 -5 8 -1 4 10 -4 11 -3 15 5 10 6 -3 14 0 19 7 4 8 21 22 36
32 15 10 26 24 23 31 -3 9 0 11 11 7 11 -4 14 -3 9 6 -4 6 -4 11 1 10 21 -4
33 2 33 16 0 10 9 13 31 10 34 -4 62 -23 53 -36 -3 -5 2 -12 11 -15 9 -4 14
-13 11 -20 -3 -9 4 -16 19 -20 24 -6 25 -30 1 -46 -6 -4 -8 -10 -5 -13 4 -3
31 25 62 62 31 37 76 88 101 113 25 24 46 49 46 55 0 6 -35 44 -77 85 -97 94
-148 139 -139 122z"/>
<path d="M3981 3246 c-7 -8 -14 -48 -15 -89 -2 -41 -7 -80 -11 -86 -13 -23
-15 -59 -2 -70 11 -9 16 0 25 42 13 60 27 217 20 217 -3 0 -11 -6 -17 -14z"/>
<path d="M859 3193 c-11 -77 79 -287 166 -390 5 -7 19 -25 30 -39 11 -15 30
-38 43 -51 12 -13 22 -26 22 -28 0 -28 291 -319 442 -442 189 -154 387 -267
522 -298 11 -3 46 -11 76 -20 30 -8 68 -17 85 -19 62 -8 85 -18 91 -42 3 -13
11 -21 16 -18 15 10 -2 -57 -18 -74 -8 -7 -12 -18 -9 -22 3 -5 -16 -16 -42
-24 -26 -8 -41 -15 -32 -15 37 -2 179 49 309 111 l65 31 -105 14 c-170 22
-250 48 -451 150 -69 34 -130 63 -134 63 -18 0 -214 139 -272 194 -18 16 -33
27 -33 24 0 -4 -50 46 -112 110 -62 64 -116 116 -121 114 -5 -1 -6 1 -3 6 2 4
-13 27 -34 50 -22 23 -37 42 -35 42 3 0 -4 10 -14 23 -11 12 -31 36 -45 52
-14 17 -26 36 -26 43 0 6 -4 12 -8 12 -5 0 -23 29 -42 65 -18 36 -35 63 -37
61 -4 -3 51 -126 104 -231 34 -69 34 -70 8 -45 -101 93 -275 358 -326 495 -12
33 -26 66 -32 73 -14 18 -47 35 -48 25z"/>
<path d="M2714 2986 c-12 -32 29 -190 60 -226 l21 -25 -23 19 -22 19 14 -41
c8 -22 17 -55 21 -74 4 -18 9 -45 12 -60 4 -19 10 -25 20 -21 13 5 14 3 6 -12
-8 -13 0 -48 33 -142 23 -69 46 -128 50 -131 4 -4 5 0 2 8 -3 9 0 24 8 35 27
37 10 225 -32 355 -28 86 -105 243 -139 286 -22 27 -24 28 -31 10z"/>
<path d="M3925 2989 c4 -5 -8 -25 -27 -43 -18 -18 -60 -80 -92 -137 -32 -57
-84 -140 -116 -184 -71 -98 -188 -235 -201 -235 -5 0 5 22 22 50 38 62 132
270 125 277 -3 3 -11 -7 -18 -23 -7 -16 -16 -33 -20 -39 -4 -5 -34 -49 -65
-96 -145 -217 -360 -440 -610 -632 -34 -26 -155 -95 -270 -154 -114 -58 -210
-108 -212 -109 -2 -2 13 -2 35 1 21 2 68 7 104 10 121 12 384 148 505 262 17
15 41 33 55 40 54 24 330 285 464 438 39 44 74 83 79 86 5 4 6 12 3 18 -4 6
-3 10 2 9 6 -2 9 -1 9 2 -2 7 26 45 62 85 19 21 29 41 25 48 -4 6 -3 9 1 4 10
-9 55 31 55 49 0 6 7 18 17 25 18 16 76 137 92 195 7 27 7 41 -1 51 -13 15
-32 18 -23 2z"/>
<path d="M1845 2866 c-11 -8 -15 -18 -10 -26 5 -9 4 -11 -3 -6 -17 10 -15 -13
2 -30 20 -19 22 -18 21 14 -1 15 3 33 8 40 14 19 3 24 -18 8z"/>
<path d="M1765 2745 c-45 -80 -101 -212 -119 -283 l-14 -52 42 -35 c24 -19 48
-35 54 -35 6 0 12 -6 15 -12 3 -7 4 4 2 25 -1 20 1 37 5 37 4 0 11 7 14 16 6
17 -5 12 -39 -15 -10 -9 -3 4 17 28 30 34 38 55 43 100 4 31 18 100 31 154 18
74 22 102 14 117 -6 11 -15 20 -20 20 -5 0 -25 -29 -45 -65z"/>
<path d="M1566 2775 c-9 -26 -7 -32 5 -12 6 10 9 21 6 23 -2 3 -7 -2 -11 -11z"/>
<path d="M3068 2398 c-2 -51 -2 -51 -26 -89 -12 -20 -31 -39 -42 -42 -11 -3
-22 -17 -26 -33 -4 -16 -13 -42 -20 -59 -7 -16 -14 -34 -16 -39 -8 -24 -64
-76 -80 -76 -15 0 -17 6 -13 31 l6 30 -28 -26 c-16 -14 -40 -33 -55 -42 -15
-9 -29 -25 -31 -35 -4 -14 -11 -17 -30 -13 -13 4 -41 -1 -62 -9 -21 -9 -54
-17 -74 -17 -20 -1 -28 -3 -18 -6 9 -2 14 -9 11 -15 -4 -7 2 -8 17 -3 13 4 21
4 17 0 -4 -5 -25 -11 -45 -15 -37 -6 -37 -6 28 -18 102 -19 130 -16 185 20 65
42 268 194 282 211 29 35 57 277 32 277 -5 0 -11 -15 -12 -32z"/>
<path d="M2715 2020 c-3 -5 -1 -10 4 -10 6 0 11 5 11 10 0 6 -2 10 -4 10 -3 0
-8 -4 -11 -10z"/>
<path d="M1455 1939 c26 -73 59 -123 126 -190 99 -100 128 -113 279 -117 88
-2 121 0 110 7 -8 6 -27 11 -43 11 -15 0 -55 13 -89 29 -34 17 -66 27 -71 24
-6 -3 -7 -1 -3 5 4 7 3 12 -3 12 -5 0 -37 25 -69 55 -33 30 -64 55 -70 55 -5
0 -9 6 -8 14 1 11 -99 91 -162 130 -7 4 -6 -8 3 -35z"/>
<path d="M1788 1760 c49 -41 131 -63 252 -67 63 -3 133 0 155 5 30 7 15 8 -65
5 -117 -6 -197 8 -295 52 -68 30 -78 31 -47 5z"/>
</g>
</svg>
