<?xml version="1.0" standalone="no"?>
<!DOCTYPE svg PUBLIC "-//W3C//DTD SVG 20010904//EN"
 "http://www.w3.org/TR/2001/REC-SVG-20010904/DTD/svg10.dtd">
<svg version="1.0" xmlns="http://www.w3.org/2000/svg"
 width="249.000000pt" height="200.000000pt" viewBox="0 0 249.000000 200.000000"
 preserveAspectRatio="xMidYMid meet">

<g transform="translate(0.000000,200.000000) scale(0.100000,-0.100000)"
fill="#000000" stroke="none">
<path d="M396 1544 c-9 -8 -16 -24 -16 -34 0 -12 180 -218 431 -495 330 -363
437 -475 454 -475 28 0 17 -11 504 525 338 371 382 423 379 449 -4 36 -31 55
-55 40 -10 -6 -198 -209 -418 -452 -220 -242 -402 -441 -405 -441 -3 -1 -190
202 -415 449 -244 269 -415 450 -426 450 -10 0 -25 -7 -33 -16z"/>
<path d="M396 1234 c-9 -8 -16 -24 -16 -35 0 -11 178 -214 432 -494 325 -358
437 -475 454 -475 27 0 18 -10 503 525 302 332 381 425 381 446 0 34 -23 53
-52 45 -13 -4 -203 -207 -423 -451 -220 -244 -402 -444 -405 -444 -3 -1 -190
202 -415 449 -244 269 -415 450 -426 450 -10 0 -25 -7 -33 -16z"/>
</g>
</svg>
